# xmcd CD database file
#
# Track frame offsets:
#	150
#	12640
#	36395
#	50792
#	62097
#	76497
#	88737
#	104017
#	116677
#	145380
#	159597
#	178300
#	192685
#	195010
#	205915
#	221362
#	241097
#	262122
#	280015
#
# Disc length: 4016 seconds
#
# Revision: 0
# Processed by: cddbd v1.5.1PL2 Copyright (c) Steve Scherf et al.
# Submitted via: CDex 1.51
#
DISCID=250fae13
DTITLE=千住明 - Best Wishes ?〜Next Door
DYEAR=2005
DGENRE=New Age
TTITLE0=Next Door <TBS系「夢の扉」テーマ曲>
TTITLE1=ピアノ協奏曲「宿命」第一楽章より抜粋 <TBS系日曜劇場「砂の器」劇中テーマ曲>
TTITLE2=Eternal Story [安楽真理子(Harp)] ?<TX系「そして音楽が始まる」テーマ曲>
TTITLE3=Voyage(Orchestra ver.) [大貫妙子(Vocal)]<愛・地球博/三井・東芝館「GRAND ODYSSEY」テーマ曲>
TTITLE4=GLORIA〜希望の光〜 <NTV系ドラマ「仔犬のワルツ」劇中曲>
TTITLE5=黄泉がえり <映画「黄泉がえり」エンドロール曲>
TTITLE6=Still Blue <コスモ石油CM曲>
TTITLE7=Dry and Wet (Complete orchestra ver.) <アサヒスーパードライCM使用曲>
TTITLE8=孤独の部品 [高橋理奈(Vocal)]
TTITLE9=Saturday Breath <NHK「土曜インタビュー2005にっぽん」テーマ曲>
TTITLE10=KYRIE [アンソニー・イングリス指揮 フィルハーモニア管弦楽団] <映画「226」より>
TTITLE11=FANTASIA [千住真理子(Violin)] <テクニクス「シーダ・コマンド」CM使用曲>
TTITLE12=SPOTLIGHT ? <サントリー「なっちゃん」CM曲>
TTITLE13=Worker Bees <NTT DoCoMo CM曲>
TTITLE14=Love You <映画「クラッシュ」メイン・テーマ曲>
TTITLE15=キレイ [Lyrico(Vocal)]  <映画「目下の恋人」主題歌>
TTITLE16=愛を乞うひと <映画「愛を乞うひと」エンドロール曲>
TTITLE17=THE LAST SONG [千住真理子(Violin)、梅田俊明指揮 読売日本交響楽団]<NTV系ドラマ「世紀末の詩」より>
TTITLE18=Ave Maria [SISSEL(Vocal)] <ニッサン「ブルーバード・シルフィ」CM曲>
EXTD=YEAR: 2005
EXTT0=
EXTT1=
EXTT2=
EXTT3=
EXTT4=
EXTT5=
EXTT6=
EXTT7=
EXTT8=
EXTT9=
EXTT10=
EXTT11=
EXTT12=
EXTT13=
EXTT14=
EXTT15=
EXTT16=
EXTT17=
EXTT18=
PLAYORDER=
